<svg id="icons" enable-background="new 0 0 64 64" height="512" viewBox="0 0 64 64" width="512" xmlns="http://www.w3.org/2000/svg"><g><g><g><path d="m5 56c-2.757 0-5-2.243-5-5s2.243-5 5-5c.553 0 1 .447 1 1s-.447 1-1 1c-1.654 0-3 1.346-3 3s1.346 3 3 3c.553 0 1 .447 1 1s-.447 1-1 1z"/></g><g><path d="m1 5.993c-.553 0-1-.448-1-1 0-2.757 2.243-5 5-5 .553 0 1 .448 1 1s-.447 1-1 1c-1.654 0-3 1.346-3 3 0 .552-.447 1-1 1z"/></g><g><path d="m5 48c-.553 0-1-.447-1-1v-46.007c0-.552.447-1 1-1s1 .448 1 1v46.007c0 .553-.447 1-1 1z"/></g><g><path d="m1 52c-.553 0-1-.447-1-1v-46.007c0-.552.447-1 1-1s1 .448 1 1v46.007c0 .553-.447 1-1 1z"/></g><g><path d="m59.02 56.004h-54.02c-.553 0-1-.447-1-1s.447-1 1-1h54.02c.553 0 1 .447 1 1s-.448 1-1 1z"/></g><g><path d="m63 13.983c-.553 0-1-.448-1-1 0-1.654-1.346-3-3-3-.553 0-1-.448-1-1s.447-1 1-1c2.757 0 5 2.243 5 5 0 .552-.447 1-1 1z"/></g><g><path d="m59 63.992c-.553 0-1-.447-1-1s.447-1 1-1c1.654 0 3-1.346 3-3 0-.553.447-1 1-1s1 .447 1 1c0 2.757-2.243 5-5 5z"/></g><g><path d="m59 63.992c-.553 0-1-.447-1-1v-8.004c0-.553.447-1 1-1s1 .447 1 1v8.004c0 .553-.447 1-1 1z"/></g><g><path d="m63 59.992c-.553 0-1-.447-1-1v-46.009c0-.552.447-1 1-1s1 .448 1 1v46.009c0 .553-.447 1-1 1z"/></g><g><path d="m63 59.992c-.553 0-1-.447-1-1 0-1.656-1.348-3.004-3.004-3.004-.553 0-1-.447-1-1s.447-1 1-1c2.759 0 5.004 2.245 5.004 5.004 0 .553-.447 1-1 1z"/></g></g><g><path d="m5 9.985c-.553 0-1-.448-1-1s.447-1 1-1l54-.002c.553 0 1 .448 1 1s-.447 1-1 1z"/></g><g><path d="m58.019 50.99h-18.021c-.553 0-1-.447-1-1v-6c0-.553.447-1 1-1h18.021c.553 0 1 .447 1 1v6c0 .553-.448 1-1 1zm-17.021-2h16.021v-4h-16.021z"/></g><g><path d="m45.999 50.99c-.553 0-1-.447-1-1v-5.936c0-.553.447-1 1-1s1 .447 1 1v5.936c0 .553-.447 1-1 1z"/></g><g><path d="m57.999 47.99h-12c-.553 0-1-.447-1-1s.447-1 1-1h12c.553 0 1 .447 1 1s-.447 1-1 1z"/></g><g><path d="m28.006 47.99h-18.006c-.553 0-1-.447-1-1s.447-1 1-1h18.006c.553 0 1 .447 1 1s-.447 1-1 1z"/></g><g><path d="m18.997 50.992h-8.997c-.553 0-1-.447-1-1s.447-1 1-1h8.997c.553 0 1 .447 1 1s-.447 1-1 1z"/></g><g><path d="m28.006 44.992h-18.006c-.553 0-1-.447-1-1s.447-1 1-1h18.006c.553 0 1 .447 1 1s-.447 1-1 1z"/></g><g><g><path d="m21.991 39.984c-.553 0-1-.447-1-1v-14.181c0-.552.447-1 1-1s1 .448 1 1v14.181c0 .553-.447 1-1 1z"/></g><g><path d="m45.995 39.984c-.553 0-1-.447-1-1v-14.142c0-.552.447-1 1-1s1 .448 1 1v14.142c0 .553-.447 1-1 1z"/></g><g><path d="m19.993 22.987c-.348 0-.685-.181-.869-.504-.274-.479-.107-1.09.372-1.364l14.001-8c.479-.275 1.09-.108 1.364.372.274.479.107 1.09-.372 1.364l-14.001 8c-.156.089-.327.132-.495.132z"/></g><g><path d="m47.993 22.987c-.168 0-.339-.042-.495-.132l-14.001-8c-.479-.274-.646-.885-.372-1.364.273-.48.883-.647 1.364-.372l14.001 8c.479.274.646.885.372 1.364-.184.323-.521.504-.869.504z"/></g><g><path d="m19.993 26.985c-.348 0-.685-.181-.869-.504-.274-.479-.107-1.09.372-1.364l14.001-7.998c.479-.274 1.09-.108 1.364.372.274.479.107 1.09-.372 1.364l-14.001 7.998c-.156.089-.327.132-.495.132z"/></g><g><path d="m47.993 26.985c-.168 0-.339-.042-.495-.132l-14.001-7.998c-.479-.274-.646-.885-.372-1.364.273-.479.883-.646 1.364-.372l14.001 7.998c.479.274.646.885.372 1.364-.184.323-.521.504-.869.504z"/></g><g><path d="m19.992 26.985c-.553 0-1-.448-1-1v-3.998c0-.552.447-1 1-1s1 .448 1 1v3.998c0 .552-.447 1-1 1z"/></g><g><path d="m47.994 26.985c-.553 0-1-.448-1-1v-3.998c0-.552.447-1 1-1s1 .448 1 1v3.998c0 .552-.447 1-1 1z"/></g></g><g><path d="m35.993 39.984h-4c-.553 0-1-.447-1-1v-7c0-.552.447-1 1-1h4c.553 0 1 .448 1 1v7c0 .553-.447 1-1 1zm-3-2h2v-5h-2z"/></g><g><path d="m18.992 39.984c-.553 0-1-.447-1-1v-2.5c0-.275-.225-.5-.5-.5s-.5.225-.5.5c0 .553-.447 1-1 1s-1-.447-1-1v-1c0-.275-.225-.5-.5-.5s-.5.225-.5.5v1c0 .553-.447 1-1 1s-1-.447-1-1c0-.275-.225-.5-.5-.5s-.5.225-.5.5v2.5c0 .553-.447 1-1 1s-1-.447-1-1v-2.5c0-1.379 1.121-2.5 2.5-2.5.313 0 .612.058.889.163.443-.698 1.225-1.163 2.111-1.163s1.668.465 2.111 1.163c.276-.105.576-.163.889-.163 1.379 0 2.5 1.121 2.5 2.5v2.5c0 .553-.447 1-1 1z"/></g><g><path d="m57.994 39.984c-.553 0-1-.447-1-1v-2.5c0-.275-.225-.5-.5-.5s-.5.225-.5.5c0 .553-.447 1-1 1s-1-.447-1-1v-1c0-.275-.225-.5-.5-.5s-.5.225-.5.5v1c0 .553-.447 1-1 1s-1-.447-1-1c0-.275-.225-.5-.5-.5s-.5.225-.5.5v2.5c0 .553-.447 1-1 1s-1-.447-1-1v-2.5c0-1.379 1.121-2.5 2.5-2.5.313 0 .612.058.889.163.443-.698 1.225-1.163 2.111-1.163s1.668.465 2.111 1.163c.276-.105.576-.163.889-.163 1.379 0 2.5 1.121 2.5 2.5v2.5c0 .553-.447 1-1 1z"/></g><g><path d="m57.994 39.984h-48.002c-.553 0-1-.447-1-1s.447-1 1-1h48.002c.553 0 1 .447 1 1s-.447 1-1 1z"/></g><g><path d="m29 33.995h-4.001c-.553 0-1-.448-1-1v-4.001c0-.552.447-1 1-1h4.001c.553 0 1 .448 1 1v4.001c0 .552-.447 1-1 1zm-3.001-2h2.001v-2.001h-2.001z"/></g><g><path d="m43.001 33.995h-4.001c-.553 0-1-.448-1-1v-4.001c0-.552.447-1 1-1h4.001c.553 0 1 .448 1 1v4.001c0 .552-.447 1-1 1zm-3.001-2h2.001v-2.001h-2.001z"/></g><g><path d="m33.999 28.992c-1.654 0-3-1.346-3-3s1.346-3 3-3 3 1.346 3 3-1.346 3-3 3zm0-4c-.552 0-1 .449-1 1s.448 1 1 1 1-.449 1-1-.448-1-1-1z"/></g><g><g><path d="m54.998 60.008h-45.007c-.553 0-1-.447-1-1s.447-1 1-1h45.007c.553 0 1 .447 1 1s-.447 1-1 1z"/></g><g><path d="m54.998 64.008c-.553 0-1-.447-1-1v-4c0-.553.447-1 1-1s1 .447 1 1v4c0 .553-.447 1-1 1z"/></g><g><path d="m54.998 64.008h-45.007c-.553 0-1-.447-1-1s.447-1 1-1h45.007c.553 0 1 .447 1 1s-.447 1-1 1z"/></g><g><path d="m9.99 64.008c-.15 0-.303-.034-.446-.105l-4-2c-.494-.247-.694-.848-.447-1.342.248-.494.848-.691 1.342-.447l4 2c.494.247.694.848.447 1.342-.176.35-.529.552-.896.552z"/></g><g><path d="m5.992 62.008c-.367 0-.72-.202-.896-.553-.246-.494-.046-1.095.448-1.342l4-2c.494-.246 1.094-.047 1.342.447.247.494.047 1.095-.447 1.342l-4 2c-.144.072-.296.106-.447.106z"/></g><g><path d="m50.998 64.008c-.553 0-1-.447-1-1v-4c0-.553.447-1 1-1s1 .447 1 1v4c0 .553-.447 1-1 1z"/></g><g><path d="m46.998 64.008c-.553 0-1-.447-1-1v-4c0-.553.447-1 1-1s1 .447 1 1v4c0 .553-.447 1-1 1z"/></g></g></g></svg>