<?xml version="1.0"?>
<svg xmlns="http://www.w3.org/2000/svg" id="Layer_1" data-name="Layer 1" viewBox="0 0 512 512" width="512" height="512"><path d="M398.054,191.058c.46-8.626,1.551-30.006,1.9-44.891.462-19.738-9.21-36.949-27.97-49.773a102,102,0,0,0-28.453-13.388C261.1,62.29,79.783,20.571,77.961,20.152a6,6,0,0,0-7.283,4.994c-.236,1.63-5.37,40.14,27.431,57.141,2.435,1.262,6.571,4.071,6.919,8.708l.019.244a9.812,9.812,0,0,1-6.265,9.895A95.929,95.929,0,0,0,66.524,120.97c-18.2,17.123-28.531,36.683-38.123,72.172-7.427,27.477-5.247,41.41.313,53.876C34.4,259.778,54.38,267.583,73.7,275.132c11.868,4.638,24.141,9.432,28.642,14.016,7.888,8.032,9.481,20.586,10.248,26.622a21.791,21.791,0,0,0,21.481,19.105h15.306c-.07,2.007-.119,4.019-.119,6.042a6,6,0,0,0,6,6h15.993l8.907,8.877L172.1,368.149a6,6,0,0,0,1.767,8.318l12.349,7.983-5.328,13.773A6,6,0,0,0,184.346,406l13.716,5.223L195.7,425.8a6,6,0,0,0,5.006,6.89l14.485,2.239.7,14.745a6,6,0,0,0,6.336,5.7l14.619-.837,3.732,14.263a6,6,0,0,0,7.392,4.267l14.12-3.873,6.594,13.159a6,6,0,0,0,8.124,2.64l13.007-6.738,9.163,11.484a6,6,0,0,0,8.5.894l11.333-9.313,11.332,9.313a6,6,0,0,0,8.5-.894l9.163-11.484L360.814,485a6,6,0,0,0,8.124-2.64l6.594-13.159,14.12,3.873a6,6,0,0,0,7.392-4.267l3.732-14.263,14.62.837a6,6,0,0,0,6.335-5.7l.7-14.745,14.484-2.239a6,6,0,0,0,5.006-6.89l-2.363-14.58L453.277,406a6,6,0,0,0,3.461-7.772L451.41,384.45l12.349-7.983a6,6,0,0,0,1.767-8.318l-8.059-12.355,8.908-8.877h15.992a6,6,0,0,0,6-6A169.708,169.708,0,0,0,398.054,191.058ZM103.139,71.363C85.285,61.8,82.407,43.344,82.244,33.454c34.2,7.888,185.259,42.818,258.32,61.18a90.143,90.143,0,0,1,24.978,11.893c15.239,10.535,22.78,23.778,22.416,39.359-.291,12.371-1.1,29.327-1.624,39.517a169.467,169.467,0,0,0-217.945,77.338l-16.9-6.78,46.531-96.647c.05-.1.087-.208.13-.312l.008,0,2.96-7.153a45.787,45.787,0,0,0-30.057-61.628Zm37.188,180.121-33.105-13.265A21.632,21.632,0,0,1,95.854,208.6l23.724-48.26a21.595,21.595,0,0,1,25.458-11.227l39.1,11.382Zm9.89,71.391H134.069a9.766,9.766,0,0,1-9.577-8.618c-1.419-11.176-4.143-23.9-13.59-33.517-6.3-6.417-18.6-11.221-32.837-16.785-15.462-6.042-34.708-13.561-38.392-21.824-4.645-10.416-6.213-21.72.312-45.859,9.061-33.521,18.158-50.939,34.762-66.562A83.986,83.986,0,0,1,103,112.368a21.875,21.875,0,0,0,14.012-22.022L117,90.1a19.833,19.833,0,0,0-.363-2.538l51.22,14.223a33.786,33.786,0,0,1,22.179,45.477l-.9,2.184L148.39,137.589a33.579,33.579,0,0,0-39.581,17.455L85.085,203.3a33.63,33.63,0,0,0,17.674,46.053l38.3,15.35h0l22.144,8.885A168.175,168.175,0,0,0,150.217,322.875ZM440.8,377.023a6,6,0,0,0-2.338,7.2l4.913,12.7-12.649,4.816a6,6,0,0,0-3.788,6.568l2.178,13.441-13.354,2.064a6,6,0,0,0-5.076,5.645l-.648,13.589-13.475-.772a6,6,0,0,0-6.148,4.472l-3.438,13.142-13.012-3.569a6,6,0,0,0-6.951,3.1l-6.074,12.122-11.985-6.208a6,6,0,0,0-7.45,1.585L333.06,477.5l-10.439-8.579a6,6,0,0,0-7.619,0L304.563,477.5l-8.44-10.579a6,6,0,0,0-7.45-1.585l-11.985,6.208-6.074-12.122a6,6,0,0,0-6.951-3.1l-13.012,3.569-3.438-13.142a5.982,5.982,0,0,0-6.148-4.472l-13.475.772-.648-13.589a6,6,0,0,0-5.076-5.645l-13.355-2.064,2.179-13.441a6,6,0,0,0-3.788-6.568l-12.649-4.816,4.913-12.7a6,6,0,0,0-2.338-7.2l-11.39-7.363,7.434-11.4a6,6,0,0,0-.79-7.529l-3.833-3.819h23.615a6,6,0,0,0,6-6,100.948,100.948,0,0,1,201.9,0,6,6,0,0,0,6,6h23.615l-3.833,3.819a6,6,0,0,0-.79,7.529l7.434,11.4ZM431.6,334.917a112.95,112.95,0,0,0-225.581,0H161.368c3.166-84.1,72.576-151.555,157.444-151.555s154.277,67.45,157.443,151.555Z"/><path d="M318.812,313.6a27.548,27.548,0,1,0,27.548,27.549A27.58,27.58,0,0,0,318.812,313.6Zm0,43.1a15.548,15.548,0,1,1,15.548-15.547A15.565,15.565,0,0,1,318.812,356.693Z"/><path d="M291.98,150.269a6,6,0,0,0,11.6-3.065l-9.5-35.956a6,6,0,0,0-11.6,3.064Z"/><path d="M314.59,150.445a6,6,0,1,0,11.5-3.418l-10.686-35.956a6,6,0,0,0-11.5,3.418Z"/><path d="M337.149,150.445a6,6,0,1,0,11.5-3.418l-10.686-35.956a6,6,0,0,0-11.5,3.418Z"/></svg>
